<svg width="90" height="56" viewBox="0 0 90 56" fill="none" xmlns="http://www.w3.org/2000/svg">
<g clip-path="url(#clip0_311_1083)">
<path d="M25 52H41V41.5H25V52ZM33.0148 39.5H2C1.7239 39.5 1.5 39.2761 1.5 39V5C1.5 4.7238 1.7239 4.5 2 4.5H64C64.2761 4.5 64.5 4.7238 64.5 5V7.0148H66V4.5C66 3.6716 65.3284 3 64.5 3H1.5C0.6716 3 0 3.6716 0 4.5V39.5C0 40.3284 0.6716 41 1.5 41H33.5318C33.2122 40.5818 33.0148 40.0658 33.0148 39.5ZM88.5 8H35.5C34.6716 8 34 8.6716 34 9.5V39.5C34 40.3284 34.6716 41 35.5 41H88.5C89.3284 41 90 40.3284 90 39.5V9.5C90 8.6716 89.3284 8 88.5 8ZM88.5 39C88.5 39.2761 88.2761 39.5 88 39.5H36C35.7239 39.5 35.5 39.2761 35.5 39V10C35.5 9.7238 35.7239 9.5 36 9.5H88C88.2761 9.5 88.5 9.7238 88.5 10V39ZM63.875 41.75C63.875 42.7165 63.0915 43.5 62.125 43.5H61.875C60.9085 43.5 60.125 42.7165 60.125 41.75V41.5H55V52H69V41.5H63.875V41.75Z" fill="#1D1D1F"/>
</g>
<defs>
<clipPath id="clip0_311_1083">
<rect width="90" height="56" fill="white"/>
</clipPath>
</defs>
</svg>
