<svg width="50" height="56" viewBox="0 0 50 56" fill="none" xmlns="http://www.w3.org/2000/svg">
<g clip-path="url(#clip0_311_1046)">
<path d="M19 52H31V44.5H19V52ZM48.5 10H1.5C1.10218 10 0.720644 10.158 0.43934 10.4393C0.158035 10.7206 0 11.1022 0 11.5L0 42.5C0 42.8978 0.158035 43.2794 0.43934 43.5607C0.720644 43.842 1.10218 44 1.5 44H48.5C48.8978 44 49.2794 43.842 49.5607 43.5607C49.842 43.2794 50 42.8978 50 42.5V11.5C50 11.1022 49.842 10.7206 49.5607 10.4393C49.2794 10.158 48.8978 10 48.5 10ZM48.5 38H1.5V12C1.5 11.8674 1.55268 11.7402 1.64645 11.6464C1.74021 11.5527 1.86739 11.5 2 11.5H48C48.1326 11.5 48.2598 11.5527 48.3536 11.6464C48.4473 11.7402 48.5 11.8674 48.5 12V38Z" fill="#1D1D1F"/>
</g>
<defs>
<clipPath id="clip0_311_1046">
<rect width="50" height="56" fill="white"/>
</clipPath>
</defs>
</svg>
