<svg width="42" height="56" viewBox="0 0 42 56" fill="none" xmlns="http://www.w3.org/2000/svg">
<g clip-path="url(#clip0_311_1069)">
<path d="M42 49V9H40V5C40 4.4477 39.5522 4 39 4C38.4478 4 38 4.4477 38 5V9H4V5C4 4.4477 3.5523 4 3 4C2.4477 4 2 4.4477 2 5V9H0V49H2V50.4592C2 50.7353 1.7761 50.9592 1.5 50.9592H0V52H6V50.9592H4.5C4.2239 50.9592 4 50.7353 4 50.4592V49H38V50.4592C38 50.7353 37.7761 50.9592 37.5 50.9592H36V52H42V50.9592H40.5C40.2239 50.9592 40 50.7353 40 50.4592V49H42ZM21.1434 23.3754C21.2542 23.1305 21.3921 22.9029 21.5778 22.6981C21.7517 22.5069 21.9621 22.3385 22.203 22.2084C22.4423 22.0803 22.6946 22.0153 22.9509 22C22.9627 22.0364 22.9666 22.0689 22.9666 22.0995V22.2064C22.9666 22.4591 22.9109 22.7153 22.8075 22.9718C22.7025 23.2261 22.5686 23.4537 22.3908 23.6526C22.2165 23.8571 22.0214 24.0161 21.7997 24.1344C21.5814 24.2551 21.3578 24.3123 21.1301 24.3123C21.0365 24.3123 20.9887 24.299 20.9828 24.259C20.9808 24.232 20.9808 24.1842 20.9808 24.1136C20.9808 23.8668 21.0364 23.6242 21.1434 23.3754ZM24.7051 30.0797C24.5864 30.3132 24.4661 30.5369 24.3416 30.7319C24.2095 30.9329 24.0834 31.1127 23.9667 31.2639C23.8386 31.4147 23.7371 31.522 23.6702 31.5965C23.5327 31.7112 23.3968 31.8108 23.2514 31.8836C23.1155 31.958 22.9702 31.9867 22.8174 31.9867C22.7199 31.9867 22.6012 31.9659 22.4652 31.9255C22.3238 31.8836 22.184 31.8393 22.0386 31.7915C21.8913 31.7437 21.744 31.7018 21.5987 31.654C21.4459 31.6156 21.3178 31.5964 21.1971 31.5964C21.067 31.5964 20.9217 31.6156 20.7724 31.6634C20.6157 31.7058 20.4625 31.7535 20.3113 31.8033C20.1546 31.8546 20.0093 31.8969 19.8827 31.9408C19.7546 31.9792 19.6379 31.9999 19.5596 31.9999C19.4334 31.9999 19.3225 31.9791 19.2133 31.9408C19.1004 31.8969 18.9841 31.826 18.8615 31.7304C18.7393 31.6329 18.6186 31.5028 18.4847 31.3383C18.3452 31.1757 18.1959 30.9767 18.0314 30.7319C17.8763 30.5063 17.7443 30.2575 17.6107 29.99C17.4881 29.7162 17.3713 29.4389 17.2836 29.1442C17.1974 28.8575 17.1245 28.5688 17.0788 28.2722C17.029 27.9776 16.9965 27.6944 16.9965 27.4151C16.9965 26.9869 17.058 26.5889 17.1841 26.2234C17.3102 25.8623 17.4881 25.5406 17.7102 25.2766C17.9338 25.0051 18.19 24.8022 18.4847 24.6534C18.7773 24.5096 19.1005 24.4352 19.4467 24.4352C19.703 24.4352 20.0054 24.5096 20.3537 24.6534C20.696 24.8023 20.933 24.877 21.0709 24.877C21.1187 24.877 21.2029 24.8559 21.3213 24.81C21.4458 24.7661 21.6312 24.7031 21.8626 24.6149C22.0922 24.5365 22.2681 24.4809 22.404 24.4503C22.5419 24.4197 22.6814 24.4025 22.8248 24.4025C23.2114 24.4025 23.5691 24.4942 23.9209 24.6798C24.2653 24.8616 24.5426 25.1025 24.7435 25.4084C24.3722 25.6325 24.1007 25.9 23.9303 26.2139C23.7677 26.5218 23.6838 26.8927 23.6838 27.3119C23.6838 27.7518 23.7967 28.1514 24.0316 28.5149C24.2612 28.8804 24.5863 29.1577 25.0036 29.3411C24.9213 29.5918 24.8198 29.8427 24.7051 30.0797Z" fill="#1D1D1F"/>
</g>
<defs>
<clipPath id="clip0_311_1069">
<rect width="42" height="56" fill="white"/>
</clipPath>
</defs>
</svg>
