<svg width="106" height="56" viewBox="0 0 106 56" fill="none" xmlns="http://www.w3.org/2000/svg">
<g clip-path="url(#clip0_311_1103)">
<path d="M23.9925 41H78.0076C78.5557 41 79 40.5556 79 40.0074V8.9925C79 8.4443 78.5557 8 78.0076 8H23.9925C23.4444 8 23.0001 8.4443 23.0001 8.9925V40.0075C23.0001 40.5557 23.4444 41 23.9925 41ZM24.5001 9.5H77.5001V39.5H24.5001V9.5ZM1.6222 30V29.5C1.6222 28.5352 2.3722 27.75 3.2951 27.75H22.0149V26H2.4334C1.0894 26 0.0001 27.0894 0.0001 28.4333V31.7473C0.8963 31.7325 1.6222 30.9557 1.6222 30ZM52.8751 41.75C52.8751 42.7165 52.0917 43.5 51.1251 43.5H50.8751C49.9085 43.5 49.1251 42.7165 49.1251 41.75V41.5H44.0001V52H58.0001V41.5H52.8751V41.75ZM102 50V27.9807C102 26.8868 101.113 26 100.019 26H79.9853V27.4855H81.7501V27.5C81.7501 28.0522 82.1979 28.5 82.7501 28.5H85.2501C85.8023 28.5 86.2501 28.0522 86.2501 27.5V27.4855H100.019C100.293 27.4855 100.515 27.7077 100.515 27.9807V50H67.4855V41.9852H66V50H62V50.5C62 51.0522 62.4478 51.5 63 51.5H65L65.2859 52H68.7141L69 51.5H99L99.2859 52H102.714L103 51.5H105C105.552 51.5 106 51.0522 106 50.5V50H102ZM22.0149 40.0075V28.25H3.295C2.6485 28.25 2.1221 28.8105 2.1221 29.5V30C2.1221 31.2316 1.1726 32.2327 0 32.2473V49.5666C0 50.9105 1.0894 51.9999 2.4333 51.9999H33.5666C34.9106 51.9999 35.9999 50.9104 35.9999 49.5666V41.9851H23.9925C22.9019 41.9851 22.0149 41.098 22.0149 40.0075ZM18.0658 37.2759C18.1165 37.1638 18.1796 37.0597 18.2645 36.966C18.3441 36.8785 18.4403 36.8014 18.5506 36.7419C18.6601 36.6833 18.7756 36.6535 18.8929 36.6466C18.8983 36.6633 18.9 36.6782 18.9 36.6921V36.741C18.9 36.8567 18.8746 36.9739 18.8272 37.0913C18.7791 37.2076 18.7178 37.3118 18.6365 37.4029C18.5567 37.4965 18.4673 37.5692 18.366 37.6234C18.2661 37.6786 18.1636 37.7048 18.0596 37.7048C18.0166 37.7048 17.9949 37.6987 17.9922 37.6804C17.9912 37.6681 17.9912 37.6462 17.9912 37.6139C17.9912 37.5009 18.0167 37.3898 18.0658 37.2759ZM19.6957 40.3439C19.6414 40.4508 19.5863 40.5531 19.5293 40.6424C19.4689 40.7344 19.4111 40.8167 19.3578 40.8859C19.2992 40.9549 19.2527 41.0041 19.2221 41.0381C19.1591 41.0906 19.0969 41.1361 19.0304 41.1695C18.9681 41.2036 18.9017 41.2166 18.8317 41.2166C18.7871 41.2166 18.7328 41.2071 18.6706 41.1886C18.6059 41.1694 18.5419 41.1492 18.4754 41.1273C18.408 41.1054 18.3405 41.0862 18.2741 41.0644C18.2042 41.0468 18.1456 41.038 18.0903 41.038C18.0309 41.038 17.9643 41.0468 17.896 41.0686C17.8243 41.0879 17.7543 41.1099 17.6851 41.1326C17.6133 41.156 17.5469 41.1754 17.4891 41.1955C17.4304 41.213 17.377 41.2225 17.3412 41.2225C17.2835 41.2225 17.2328 41.213 17.1828 41.1955C17.131 41.1754 17.0778 41.1429 17.0218 41.0992C16.9658 41.0546 16.9106 40.9951 16.8493 40.9198C16.7855 40.8454 16.7172 40.7543 16.6419 40.6423C16.571 40.5391 16.5104 40.4253 16.4494 40.3028C16.3932 40.1775 16.3398 40.0506 16.2997 39.9158C16.2601 39.7846 16.2268 39.6524 16.2059 39.5168C16.183 39.382 16.1682 39.2524 16.1682 39.1245C16.1682 38.9286 16.1964 38.7464 16.254 38.5792C16.3117 38.4139 16.3932 38.2668 16.4947 38.1459C16.5971 38.0217 16.7144 37.9288 16.8492 37.8607C16.9831 37.7949 17.1309 37.7608 17.2895 37.7608C17.4068 37.7608 17.5451 37.7949 17.7045 37.8607C17.8611 37.9288 17.9695 37.9631 18.0327 37.9631C18.0546 37.9631 18.093 37.9535 18.1472 37.9325C18.2042 37.9124 18.289 37.8835 18.395 37.8432C18.5 37.8074 18.5805 37.7819 18.6428 37.7679C18.7058 37.7539 18.7696 37.746 18.8352 37.746C19.0122 37.746 19.1759 37.788 19.3369 37.873C19.4944 37.9562 19.6213 38.0664 19.7134 38.2064C19.5435 38.3089 19.4192 38.4314 19.3412 38.575C19.2669 38.7159 19.2284 38.8857 19.2284 39.0775C19.2284 39.2788 19.28 39.4617 19.3877 39.628C19.4927 39.7952 19.6415 39.9222 19.8324 40.0061C19.7947 40.1208 19.7482 40.2354 19.6957 40.3439Z" fill="#1D1D1F"/>
</g>
<defs>
<clipPath id="clip0_311_1103">
<rect width="106" height="56" fill="white"/>
</clipPath>
</defs>
</svg>
