<svg width="72" height="56" viewBox="0 0 72 56" fill="none" xmlns="http://www.w3.org/2000/svg">
<g clip-path="url(#clip0_311_1038)">
<path d="M68 49V26C68 24.8954 67.1046 24 66 24H32C30.8954 24 30 24.8954 30 26V49H26V50.2122C26 50.9538 26.6012 51.5 27.3429 51.5H29.7183L29.9327 52H32.504L32.7184 51.5H65.0001L65.2145 52H67.7858L68.0002 51.5H70.6573C71.399 51.5 72.0002 50.9539 72.0002 50.2122V49H68ZM66.5 49H31.5V26C31.5 25.7243 31.7242 25.5 32 25.5H46.5V25.56C46.5 26.0792 46.9209 26.5 47.4399 26.5H50.56C51.079 26.5 51.4999 26.0792 51.4999 25.56V25.5H65.9999C66.2757 25.5 66.4999 25.7243 66.4999 26L66.5 49ZM25 49H5.5V22C5.5 21.7243 5.7242 21.5 6 21.5H23.5V21.56C23.5 22.0792 23.9209 22.5 24.4399 22.5H27.56C28.079 22.5 28.4999 22.0792 28.4999 21.56V21.5H45.9999C46.2757 21.5 46.4999 21.7243 46.4999 22V23.0184H47.9999V22C47.9999 20.8954 47.1045 20 45.9999 20H6C4.8954 20 4 20.8954 4 22V49H0V50.2122C0 50.9538 0.6797 51.5 1.5181 51.5H3.3479L3.5623 52H6.1336L6.348 51.5H25.3951C25.1449 51.1354 25.0001 50.6934 25.0001 50.2122L25 49Z" fill="#1D1D1F"/>
</g>
<defs>
<clipPath id="clip0_311_1038">
<rect width="72" height="56" fill="white"/>
</clipPath>
</defs>
</svg>
