<svg width="72" height="56" viewBox="0 0 72 56" fill="none" xmlns="http://www.w3.org/2000/svg">
<g clip-path="url(#clip0_311_1031)">
<path d="M68 50V27.9807C68 26.8868 67.1133 26 66.0193 26H33.9807C32.8867 26 32 26.8868 32 27.9807V50H28V50.5C28 50.7761 28.1118 51.0261 28.293 51.2071C28.4739 51.3881 28.7239 51.5 29 51.5H31L31.2859 52H34.7141L35 51.5H65L65.2859 52H68.7141L69 51.5H71C71.5522 51.5 72 51.0522 72 50.5V50H68ZM66.5 50H33.5V27.9807C33.5 27.7157 33.7156 27.5 33.9807 27.5H47.75C47.75 28.0522 48.1978 28.5 48.75 28.5H51.25C51.8022 28.5 52.25 28.0522 52.25 27.5H66.0193C66.2844 27.5 66.5 27.7156 66.5 27.9807V50ZM27 50H6.5V24C6.5 23.7243 6.7244 23.5 7 23.5H23.7598C23.7867 24.0552 24.2369 24.5 24.7989 24.5H28.2012C28.7632 24.5 29.2134 24.0552 29.2403 23.5H46.0001C46.2757 23.5 46.5001 23.7243 46.5001 24V25H48.0001V24C48.0001 22.8954 47.1046 22 46.0001 22H7C5.8955 22 5 22.8954 5 24V50H0V50.5C0 51.0522 0.4478 51.5 1 51.5H4L4.2859 52H7.7141L8 51.5H27.2783C27.1059 51.2047 27 50.8659 27 50.5V50Z" fill="#1D1D1F"/>
</g>
<defs>
<clipPath id="clip0_311_1031">
<rect width="72" height="56" fill="white"/>
</clipPath>
</defs>
</svg>
