<svg width="14" height="18" viewBox="0 0 14 18" fill="none" xmlns="http://www.w3.org/2000/svg">
<mask id="mask0_311_985" style="mask-type:alpha" maskUnits="userSpaceOnUse" x="0" y="0" width="14" height="18">
<g clip-path="url(#clip0_311_985)">
<path d="M4.01979 16.2302C3.76979 16.0702 3.50979 15.8402 3.24979 15.5202C3.06979 15.3102 2.84979 15.0102 2.58979 14.6202C2.13979 13.9702 1.76979 13.2202 1.48979 12.3702C1.17979 11.4402 1.02979 10.5502 1.02979 9.68016C1.02979 8.71016 1.23979 7.86016 1.64979 7.15016C1.96979 6.58016 2.39979 6.13016 2.94979 5.80016C3.49979 5.46016 4.07979 5.29016 4.70979 5.28016C4.92979 5.28016 5.15979 5.31016 5.40979 5.37016C5.58979 5.42016 5.80978 5.50016 6.06979 5.60016C6.40979 5.73016 6.59979 5.81016 6.65979 5.83016C6.85979 5.90016 7.02979 5.93016 7.15979 5.93016C7.25979 5.93016 7.39979 5.90016 7.55978 5.85016C7.64979 5.82016 7.81979 5.76016 8.05979 5.66016C8.29979 5.57016 8.48979 5.50016 8.63979 5.44016C8.86979 5.37016 9.08979 5.31016 9.28979 5.28016C9.52979 5.24016 9.76979 5.23016 9.99979 5.25016C10.4398 5.28016 10.8398 5.37016 11.1998 5.51016C11.8298 5.76016 12.3398 6.16016 12.7198 6.72016C12.5598 6.82016 12.4098 6.93016 12.2698 7.06016C11.9598 7.34016 11.6998 7.65016 11.5098 7.99016C11.2398 8.47016 11.1098 9.00016 11.1098 9.55016C11.1198 10.2202 11.2898 10.8102 11.6298 11.3202C11.8698 11.6902 12.1898 12.0102 12.5798 12.2702C12.7698 12.4002 12.9398 12.4902 13.0998 12.5502C13.0198 12.8102 12.9298 13.0402 12.8498 13.2302C12.6298 13.7502 12.3698 14.2202 12.0798 14.6602C11.8098 15.0502 11.5998 15.3402 11.4398 15.5302C11.1898 15.8302 10.9498 16.0502 10.7098 16.2102C10.4298 16.3902 10.1298 16.4802 9.80979 16.4802C9.58979 16.4902 9.37979 16.4602 9.16979 16.4002C9.04979 16.3602 8.86979 16.3002 8.63979 16.2002C8.40979 16.1002 8.21979 16.0302 8.07979 15.9902C7.84979 15.9302 7.60979 15.9002 7.35979 15.9002C7.10979 15.9002 6.86978 15.9302 6.63978 15.9902C6.47978 16.0302 6.29979 16.1002 6.07979 16.1902C5.81979 16.3002 5.64979 16.3702 5.54979 16.4002C5.34979 16.4602 5.13979 16.5002 4.93979 16.5102C4.61979 16.5102 4.31979 16.4202 4.01979 16.2302ZM8.25979 4.81016C7.83979 5.02016 7.43979 5.11016 7.03979 5.08016C6.97979 4.68016 7.03979 4.27016 7.20979 3.82016C7.35979 3.44016 7.55979 3.09016 7.82979 2.78016C8.09979 2.47016 8.42979 2.21016 8.83979 2.00016C9.24979 1.79016 9.63979 1.68016 10.0098 1.66016C10.0598 2.08016 10.0098 2.50016 9.85979 2.94016C9.71978 3.34016 9.50979 3.70016 9.23979 4.03016C8.96979 4.36016 8.63979 4.62016 8.25979 4.81016Z" fill="black"/>
</g>
</mask>
<g mask="url(#mask0_311_985)">
<rect width="14" height="18" fill="black" fill-opacity="0.72"/>
</g>
<defs>
<clipPath id="clip0_311_985">
<rect width="14" height="18" fill="white"/>
</clipPath>
</defs>
</svg>
