<svg width="34" height="44" viewBox="0 0 34 44" fill="none" xmlns="http://www.w3.org/2000/svg">
<path d="M0.404297 17.5449H1.5117L3.9961 24.6347H4.0899L6.5743 17.5449H7.6817L4.5645 26H3.5215L0.404297 17.5449ZM8.751 17.7617C8.751 17.375 9.0674 17.0586 9.4541 17.0586C9.8408 17.0586 10.1572 17.375 10.1572 17.7617C10.1572 18.1484 9.8408 18.4648 9.4541 18.4648C9.0674 18.4648 8.751 18.1484 8.751 17.7617ZM8.9385 19.6836H9.958V26H8.9385V19.6836ZM11.4375 24.3887H12.4805C12.6504 24.916 13.1543 25.2617 13.9629 25.2617C14.8125 25.2617 15.416 24.8574 15.416 24.2832V24.2715C15.416 23.8438 15.0937 23.5449 14.3144 23.3574L13.3359 23.123C12.1523 22.8418 11.6191 22.3261 11.6191 21.4179V21.412C11.6191 20.3632 12.6269 19.5722 13.9687 19.5722C15.2929 19.5722 16.2128 20.2343 16.3535 21.2656H15.3515C15.2167 20.7676 14.7245 20.4218 13.9628 20.4218C13.2128 20.4218 12.662 20.8085 12.662 21.3652V21.3769C12.662 21.8046 12.9784 22.0742 13.7225 22.2558L14.6952 22.4902C15.8847 22.7773 16.4589 23.2929 16.4589 24.1953V24.207C16.4589 25.332 15.3632 26.1113 13.9277 26.1113C12.5215 26.1113 11.5547 25.4317 11.4375 24.3887ZM17.7578 17.7617C17.7578 17.375 18.0742 17.0586 18.4609 17.0586C18.8476 17.0586 19.164 17.375 19.164 17.7617C19.164 18.1484 18.8476 18.4648 18.4609 18.4648C18.0742 18.4648 17.7578 18.1484 17.7578 17.7617ZM17.9453 19.6836H18.9648V26H17.9453V19.6836ZM20.4502 22.8477V22.836C20.4502 20.8087 21.5635 19.5723 23.3623 19.5723C25.1611 19.5723 26.2744 20.8086 26.2744 22.836V22.8477C26.2744 24.8692 25.1611 26.1114 23.3623 26.1114C21.5635 26.1114 20.4502 24.8692 20.4502 22.8477ZM25.2314 22.8477V22.836C25.2314 21.3419 24.5576 20.4747 23.3623 20.4747C22.167 20.4747 21.4932 21.3419 21.4932 22.836V22.8477C21.4932 24.336 22.167 25.209 23.3623 25.209C24.5576 25.209 25.2314 24.336 25.2314 22.8477ZM27.7363 19.6836H28.7558V20.6328H28.8496C29.166 19.9648 29.7578 19.5723 30.6894 19.5723C32.1074 19.5723 32.8984 20.4102 32.8984 21.9102V26H31.8789V22.1562C31.8789 21.0195 31.4101 20.4746 30.4023 20.4746C29.3945 20.4746 28.7558 21.1543 28.7558 22.2617V26H27.7363V19.6836Z" fill="black" fill-opacity="0.8"/>
</svg>
