<svg width="35" height="44" viewBox="0 0 35 44" fill="none" xmlns="http://www.w3.org/2000/svg">
<path d="M28.9817 17.1758H29.9897V20.6798H30.0837C30.3997 19.9828 31.0617 19.5718 32.0287 19.5718C33.3647 19.5718 34.2087 20.4278 34.2087 21.9098V25.9998H33.2007V22.1558C33.2007 21.0368 32.6967 20.4808 31.7417 20.4808C30.6107 20.4808 29.9897 21.1958 29.9897 22.2618V25.9998H28.9817V17.1758ZM26.5617 21.6168C26.3977 20.9898 25.8407 20.4808 24.9327 20.4808C23.7957 20.4808 23.0807 21.3888 23.0807 22.8188C23.0807 24.2778 23.8077 25.2028 24.9327 25.2028C25.7817 25.2028 26.3737 24.8108 26.5617 24.0958H27.5807C27.3987 25.2558 26.4557 26.1118 24.9387 26.1118C23.1687 26.1118 22.0377 24.8278 22.0377 22.8188C22.0377 20.8498 23.1627 19.5718 24.9327 19.5718C26.4677 19.5718 27.4047 20.4918 27.5807 21.6168H26.5617ZM20.0287 18.0488V19.6838H21.4357V20.5278H20.0287V24.1018C20.0287 24.8458 20.3107 25.1618 20.9667 25.1618C21.1487 25.1618 21.2477 25.1558 21.4357 25.1388V25.9888C21.2357 26.0238 21.0427 26.0468 20.8437 26.0468C19.5427 26.0468 19.0217 25.5668 19.0217 24.3598V20.5278H18.0017V19.6838H19.0217V18.0488H20.0287ZM15.8287 23.6448V23.0648L14.1297 23.1758C13.1687 23.2398 12.7467 23.5738 12.7467 24.2068C12.7467 24.8518 13.2917 25.2268 14.0237 25.2268C15.0617 25.2268 15.8287 24.5468 15.8287 23.6448ZM11.7037 24.2308C11.7037 23.0998 12.5357 22.4488 14.0067 22.3618L15.8287 22.2498V21.6758C15.8287 20.8968 15.3427 20.4688 14.3987 20.4688C13.6437 20.4688 13.1157 20.7558 12.9757 21.2538H11.9557C12.0907 20.2398 13.0867 19.5718 14.4347 19.5718C15.9757 19.5718 16.8367 20.3638 16.8367 21.6758V25.9998H15.8757V25.0688H15.7817C15.3717 25.7418 14.6807 26.1118 13.8367 26.1118C12.6117 26.1118 11.7037 25.3848 11.7037 24.2308ZM4.0197 25.9998H3.0237L0.720703 17.5448H1.8217L3.5037 24.4178H3.5737L5.4667 17.5448H6.5327L8.4257 24.4178H8.4957L10.1777 17.5448H11.2787L8.9767 25.9998H7.9807L6.0347 19.3258H5.9647L4.0197 25.9998Z" fill="black" fill-opacity="0.8"/>
</svg>
