<svg width="38" height="44" viewBox="0 0 38 44" fill="none" xmlns="http://www.w3.org/2000/svg">
<path d="M32.7127 22.3203H36.1927C36.1697 21.2013 35.5017 20.4633 34.4997 20.4633C33.4917 20.4633 32.7887 21.2013 32.7127 22.3203ZM37.1717 24.3653C36.8787 25.4433 35.8947 26.1113 34.5117 26.1113C32.7597 26.1113 31.6637 24.8453 31.6637 22.8473C31.6637 20.8613 32.7767 19.5723 34.5117 19.5723C36.2167 19.5723 37.2537 20.7853 37.2537 22.7483V23.1343H32.7127V23.1813C32.7657 24.4293 33.4627 25.2203 34.5347 25.2203C35.3497 25.2203 35.9007 24.9223 36.1637 24.3653H37.1717ZM24.8897 19.6833H25.8507V20.6793H25.9447C26.2607 19.9823 26.8767 19.5723 27.8427 19.5723C29.2607 19.5723 30.0517 20.4103 30.0517 21.9103V26.0003H29.0447V22.1563C29.0447 21.0193 28.5637 20.4803 27.5557 20.4803C26.5477 20.4803 25.8977 21.1543 25.8977 22.2613V26.0003H24.8897V19.6833ZM22.3907 22.8413C22.3907 21.3413 21.7167 20.4803 20.5217 20.4803C19.3257 20.4803 18.6517 21.3413 18.6517 22.8413C18.6517 24.3363 19.3257 25.2033 20.5217 25.2033C21.7167 25.2033 22.3907 24.3363 22.3907 22.8413ZM17.6087 22.8413C17.6087 20.8083 18.7227 19.5723 20.5217 19.5723C22.3197 19.5723 23.4337 20.8083 23.4337 22.8413C23.4337 24.8693 22.3197 26.1113 20.5217 26.1113C18.7227 26.1113 17.6087 24.8693 17.6087 22.8413ZM10.9727 17.1753H11.9807V20.6793H12.0737C12.3907 19.9823 13.0527 19.5723 14.0197 19.5723C15.3557 19.5723 16.1987 20.4273 16.1987 21.9103V26.0003H15.1917V22.1563C15.1917 21.0373 14.6877 20.4803 13.7327 20.4803C12.6017 20.4803 11.9807 21.1953 11.9807 22.2613V26.0003H10.9727V17.1753ZM4.95772 22.0453H6.82071C8.02272 22.0453 8.71972 21.4003 8.71972 20.2813C8.71972 19.1213 8.04571 18.4823 6.82071 18.4823H4.95772V22.0453ZM7.09671 17.5453C8.69571 17.5453 9.80371 18.6703 9.80371 20.2813C9.80371 21.8633 8.67272 22.9823 7.08471 22.9823H4.95772V26.0003H3.90271V17.5453H7.09671ZM0.982715 25.9993H1.99071V19.6833H0.982715V25.9993ZM0.782715 17.7613C0.782715 17.3753 1.09971 17.0583 1.48571 17.0583C1.87271 17.0583 2.18971 17.3753 2.18971 17.7613C2.18971 18.1483 1.87271 18.4653 1.48571 18.4653C1.09971 18.4653 0.782715 18.1483 0.782715 17.7613Z" fill="black" fill-opacity="0.8"/>
</svg>
