<svg width="24" height="44" viewBox="0 0 24 44" fill="none" xmlns="http://www.w3.org/2000/svg">
<path d="M14.9577 23.7002C14.9577 24.6022 14.1897 25.2822 13.1527 25.2822C12.4207 25.2822 11.8757 24.9072 11.8757 24.2622C11.8757 23.6302 12.2977 23.2962 13.2587 23.2312L14.9577 23.1202V23.7002ZM13.5627 19.6282C12.2157 19.6282 11.2197 20.2962 11.0847 21.3092H12.1037C12.2447 20.8112 12.7717 20.5242 13.5277 20.5242C14.4717 20.5242 14.9577 20.9522 14.9577 21.7312V22.3052L13.1357 22.4172C11.6647 22.5052 10.8327 23.1552 10.8327 24.2862C10.8327 25.4402 11.7407 26.1672 12.9657 26.1672C13.8097 26.1672 14.5007 25.7982 14.9107 25.1242H15.0047V26.0552H15.9657V21.7312C15.9657 20.4192 15.1037 19.6282 13.5627 19.6282ZM20.3317 25.2032C19.1767 25.2032 18.4857 24.3182 18.4857 22.8422C18.4857 21.3712 19.1827 20.4802 20.3317 20.4802C21.4737 20.4802 22.1887 21.3942 22.1887 22.8422C22.1887 24.3012 21.4797 25.2032 20.3317 25.2032ZM22.1657 17.1762V20.6792H22.0777C21.7197 19.9882 20.9757 19.5722 20.0967 19.5722C18.4917 19.5722 17.4427 20.8612 17.4427 22.8422C17.4427 24.8282 18.4797 26.1112 20.0967 26.1112C20.9697 26.1112 21.7197 25.6952 22.1187 24.9922H22.2117V26.0002H23.1727V17.1762H22.1657ZM6.77167 22.0452H4.90867V18.4822H6.77167C7.99667 18.4822 8.67067 19.1212 8.67067 20.2812C8.67067 21.4002 7.97367 22.0452 6.77167 22.0452ZM7.04767 17.5452H3.85367V26.0002H4.90867V22.9822H7.03567C8.62367 22.9822 9.75467 21.8632 9.75467 20.2812C9.75467 18.6702 8.64667 17.5452 7.04767 17.5452ZM0.983668 25.9992H1.99167V19.6832H0.983668V25.9992ZM0.784668 17.7622C0.784668 17.3752 1.10067 17.0582 1.48767 17.0582C1.87467 17.0582 2.19067 17.3752 2.19067 17.7622C2.19067 18.1482 1.87467 18.4652 1.48767 18.4652C1.10067 18.4652 0.784668 18.1482 0.784668 17.7622Z" fill="black" fill-opacity="0.8"/>
</svg>
