<svg width="44" height="44" viewBox="0 0 44 44" fill="none" xmlns="http://www.w3.org/2000/svg">
<path d="M42.1204 18.0337V19.6687H43.5264V20.5127H42.1204V24.0867C42.1204 24.8307 42.4014 25.1467 43.0574 25.1467C43.2394 25.1467 43.3394 25.1407 43.5264 25.1237V25.9727C43.3274 26.0087 43.1344 26.0317 42.9344 26.0317C41.6344 26.0317 41.1124 25.5517 41.1124 24.3447V20.5127H40.0934V19.6687H41.1124V18.0337H42.1204ZM35.9894 19.6687H36.9504V20.6057H37.0434C37.2314 19.9907 37.9574 19.5567 38.7954 19.5567C38.9594 19.5567 39.1704 19.5687 39.2994 19.5867V20.5947C39.2174 20.5707 38.8544 20.5357 38.6554 20.5357C37.6944 20.5357 36.9964 21.1797 36.9964 22.0707V25.9847H35.9894V19.6687ZM33.5264 22.8267C33.5264 21.3267 32.8524 20.4657 31.6574 20.4657C30.4624 20.4657 29.7884 21.3267 29.7884 22.8267C29.7884 24.3207 30.4624 25.1877 31.6574 25.1877C32.8524 25.1877 33.5264 24.3207 33.5264 22.8267ZM28.7454 22.8267C28.7454 20.7937 29.8584 19.5567 31.6574 19.5567C33.4564 19.5567 34.5694 20.7937 34.5694 22.8267C34.5694 24.8537 33.4564 26.0967 31.6574 26.0967C29.8584 26.0967 28.7454 24.8537 28.7454 22.8267ZM26.6374 22.8267C26.6374 21.3497 25.9454 20.4657 24.7914 20.4657C23.6484 20.4657 22.9284 21.3737 22.9284 22.8267C22.9284 24.2737 23.6484 25.1877 24.7854 25.1877C25.9454 25.1877 26.6374 24.3037 26.6374 22.8267ZM27.6804 22.8267C27.6804 24.8017 26.6314 26.0967 25.0254 26.0967C24.1234 26.0967 23.3964 25.7037 23.0514 25.0357H22.9574V28.0947H21.9494V19.6687H22.9104V20.7227H23.0044C23.4084 19.9967 24.1644 19.5567 25.0254 19.5567C26.6374 19.5567 27.6804 20.8407 27.6804 22.8267ZM19.6324 22.8267C19.6324 21.3497 18.9414 20.4657 17.7874 20.4657C16.6444 20.4657 15.9234 21.3737 15.9234 22.8267C15.9234 24.2737 16.6444 25.1877 17.7814 25.1877C18.9414 25.1877 19.6324 24.3037 19.6324 22.8267ZM20.6754 22.8267C20.6754 24.8017 19.6264 26.0967 18.0214 26.0967C17.1194 26.0967 16.3924 25.7037 16.0464 25.0357H15.9534V28.0947H14.9454V19.6687H15.9064V20.7227H15.9994C16.4044 19.9967 17.1604 19.5567 18.0214 19.5567C19.6324 19.5567 20.6754 20.8407 20.6754 22.8267ZM13.0304 25.9847H12.0694V24.9947H11.9754C11.6594 25.6977 10.9854 26.0967 10.0184 26.0967C8.60044 26.0967 7.86244 25.2527 7.86244 23.7587V19.6687H8.87044V23.5127C8.87044 24.6487 9.29244 25.1767 10.3004 25.1767C11.4134 25.1767 12.0224 24.5137 12.0224 23.4067V19.6687H13.0304V25.9847ZM1.34044 23.7757C1.46944 24.6607 2.31244 25.2227 3.51444 25.2227C4.65044 25.2227 5.48844 24.6077 5.48844 23.7697C5.48844 23.0497 4.96144 22.5927 3.79544 22.2997L2.71144 22.0177C1.18244 21.6317 0.519437 20.9397 0.519437 19.7387C0.519437 18.3037 1.72144 17.3307 3.50844 17.3307C5.14244 17.3307 6.36144 18.3037 6.44944 19.6687H5.38944C5.24244 18.8017 4.52744 18.2857 3.47344 18.2857C2.34844 18.2857 1.60344 18.8477 1.60344 19.7037C1.60344 20.3657 2.06644 20.7467 3.23244 21.0457L4.11744 21.2797C5.86944 21.7197 6.57244 22.3987 6.57244 23.6407C6.57244 25.1937 5.34844 26.1837 3.41444 26.1837C1.62144 26.1837 0.385438 25.2347 0.273438 23.7757H1.34044Z" fill="black" fill-opacity="0.8"/>
</svg>
