<svg width="67" height="44" viewBox="0 0 67 44" fill="none" xmlns="http://www.w3.org/2000/svg">
<path d="M5.66014 23.5715H2.29684L1.44724 25.9914H0.339844L3.45704 17.5363H4.50004L7.61724 25.9914H6.50974L5.66014 23.5715ZM2.60744 22.675H5.34964L4.02544 18.9016H3.93164L2.60744 22.675ZM12.706 21.6086C12.5419 20.9816 11.9853 20.4719 11.0771 20.4719C9.94044 20.4719 9.22554 21.3801 9.22554 22.8098C9.22554 24.2688 9.95214 25.1946 11.0771 25.1946C11.9267 25.1946 12.5185 24.802 12.706 24.0872H13.7255C13.5439 25.2474 12.6005 26.1028 11.0829 26.1028C9.31344 26.1028 8.18254 24.8196 8.18254 22.8098C8.18254 20.841 9.30754 19.5637 11.077 19.5637C12.6122 19.5637 13.5497 20.4836 13.7254 21.6086H12.706ZM19.3007 21.6086C19.1366 20.9816 18.58 20.4719 17.6718 20.4719C16.5351 20.4719 15.8202 21.3801 15.8202 22.8098C15.8202 24.2688 16.5468 25.1946 17.6718 25.1946C18.5214 25.1946 19.1132 24.802 19.3007 24.0872H20.3202C20.1386 25.2474 19.1952 26.1028 17.6776 26.1028C15.9081 26.1028 14.7772 24.8196 14.7772 22.8098C14.7772 20.841 15.9022 19.5637 17.6717 19.5637C19.2069 19.5637 20.1444 20.4836 20.3201 21.6086H19.3007ZM26.8803 24.3566C26.5873 25.4347 25.603 26.1027 24.2201 26.1027C22.4681 26.1027 21.3724 24.8371 21.3724 22.839C21.3724 20.8527 22.4857 19.5636 24.2201 19.5636C25.9252 19.5636 26.9623 20.7765 26.9623 22.7394V23.1261H22.4213V23.173C22.474 24.421 23.1713 25.2121 24.2436 25.2121C25.0581 25.2121 25.6088 24.9133 25.8725 24.3566H26.8803ZM22.4213 22.3117H25.9018C25.8784 21.1926 25.2104 20.4543 24.2084 20.4543C23.2006 20.4543 22.4975 21.1926 22.4213 22.3117ZM30.6333 19.5637C31.9575 19.5637 32.8774 20.2199 33.0122 21.2571H32.0161C31.8813 20.7532 31.3891 20.4192 30.6274 20.4192C29.8774 20.4192 29.2915 20.8001 29.2915 21.3626C29.2915 21.7962 29.6431 22.0657 30.3872 22.2474L31.3599 22.4818C32.5494 22.7689 33.1236 23.2845 33.1236 24.1927C33.1236 25.3236 32.0279 26.1029 30.5924 26.1029C29.1862 26.1029 28.2194 25.4291 28.108 24.3802H29.1451C29.315 24.9134 29.8189 25.2532 30.6275 25.2532C31.4771 25.2532 32.0865 24.8489 32.0865 24.2688C32.0865 23.8352 31.7584 23.5422 31.0845 23.3782L30.0005 23.1145C28.8169 22.8274 28.2778 22.3176 28.2778 21.4036C28.2778 20.3547 29.2915 19.5637 30.6333 19.5637ZM36.6772 19.5637C38.0014 19.5637 38.9213 20.2199 39.0561 21.2571H38.06C37.9252 20.7532 37.433 20.4192 36.6713 20.4192C35.9213 20.4192 35.3354 20.8001 35.3354 21.3626C35.3354 21.7962 35.687 22.0657 36.4311 22.2474L37.4038 22.4818C38.5933 22.7689 39.1675 23.2845 39.1675 24.1927C39.1675 25.3236 38.0718 26.1029 36.6363 26.1029C35.2301 26.1029 34.2633 25.4291 34.1519 24.3802H35.189C35.3589 24.9134 35.8628 25.2532 36.6714 25.2532C37.521 25.2532 38.1304 24.8489 38.1304 24.2688C38.1304 23.8352 37.8023 23.5422 37.1284 23.3782L36.0444 23.1145C34.8608 22.8274 34.3217 22.3176 34.3217 21.4036C34.3217 20.3547 35.3354 19.5637 36.6772 19.5637ZM40.3129 22.8332C40.3129 20.8 41.4262 19.5637 43.225 19.5637C45.0238 19.5637 46.1371 20.8 46.1371 22.8332C46.1371 24.8605 45.0238 26.1027 43.225 26.1027C41.4262 26.1027 40.3129 24.8605 40.3129 22.8332ZM45.0942 22.8332C45.0942 21.3332 44.4204 20.4719 43.2251 20.4719C42.0298 20.4719 41.356 21.3332 41.356 22.8332C41.356 24.3273 42.0298 25.1945 43.2251 25.1945C44.4204 25.1945 45.0942 24.3273 45.0942 22.8332ZM47.5996 19.675H48.5605V20.6125H48.6543C48.8418 19.9973 49.5684 19.5637 50.4063 19.5637C50.5704 19.5637 50.7813 19.5754 50.9102 19.593V20.6008C50.8282 20.5774 50.4649 20.5422 50.2657 20.5422C49.3048 20.5422 48.6075 21.1867 48.6075 22.0774V25.9915H47.5997L47.5996 19.675ZM51.874 17.7531C51.874 17.3664 52.1904 17.05 52.5771 17.05C52.9638 17.05 53.2802 17.3664 53.2802 17.7531C53.2802 18.1398 52.9638 18.4562 52.5771 18.4562C52.1904 18.4562 51.874 18.1398 51.874 17.7531ZM52.0732 19.675H53.081V25.9914H52.0732V19.675ZM60.0742 24.3566C59.7812 25.4347 58.7969 26.1027 57.414 26.1027C55.662 26.1027 54.5663 24.8371 54.5663 22.839C54.5663 20.8527 55.6796 19.5636 57.414 19.5636C59.1191 19.5636 60.1562 20.7765 60.1562 22.7394V23.1261H55.6152V23.173C55.6679 24.421 56.3652 25.2121 57.4375 25.2121C58.252 25.2121 58.8027 24.9133 59.0664 24.3566H60.0742ZM55.6152 22.3117H59.0957C59.0723 21.1926 58.4043 20.4543 57.4023 20.4543C56.3945 20.4543 55.6914 21.1926 55.6152 22.3117ZM63.8271 19.5637C65.1513 19.5637 66.0712 20.2199 66.206 21.2571H65.2099C65.0751 20.7532 64.5829 20.4192 63.8212 20.4192C63.0712 20.4192 62.4853 20.8001 62.4853 21.3626C62.4853 21.7962 62.8369 22.0657 63.581 22.2474L64.5537 22.4818C65.7432 22.7689 66.3174 23.2845 66.3174 24.1927C66.3174 25.3236 65.2217 26.1029 63.7862 26.1029C62.38 26.1029 61.4132 25.4291 61.3018 24.3802H62.3389C62.5088 24.9134 63.0127 25.2532 63.8213 25.2532C64.6709 25.2532 65.2803 24.8489 65.2803 24.2688C65.2803 23.8352 64.9522 23.5422 64.2783 23.3782L63.1943 23.1145C62.0107 22.8274 61.4716 22.3176 61.4716 21.4036C61.4716 20.3547 62.4853 19.5637 63.8271 19.5637Z" fill="black" fill-opacity="0.8"/>
</svg>
