<svg width="18" height="18" viewBox="0 0 18 18" fill="none" xmlns="http://www.w3.org/2000/svg">
<path d="M15.525 7.659H10.35V2.475C10.35 2.11696 10.2078 1.77358 9.95459 1.52041C9.70142 1.26723 9.35804 1.125 9 1.125C8.64196 1.125 8.29858 1.26723 8.04541 1.52041C7.79223 1.77358 7.65 2.11696 7.65 2.475V7.65H2.475C2.11696 7.65 1.77358 7.79223 1.52041 8.04541C1.26723 8.29858 1.125 8.64196 1.125 9C1.125 9.35804 1.26723 9.70142 1.52041 9.95459C1.77358 10.2078 2.11696 10.35 2.475 10.35H7.65V15.525C7.65 15.883 7.79223 16.2264 8.04541 16.4796C8.29858 16.7328 8.64196 16.875 9 16.875C9.35804 16.875 9.70142 16.7328 9.95459 16.4796C10.2078 16.2264 10.35 15.883 10.35 15.525V10.35H15.525C15.883 10.35 16.2264 10.2078 16.4796 9.95459C16.7328 9.70142 16.875 9.35804 16.875 9C16.875 8.64196 16.7328 8.29858 16.4796 8.04541C16.2264 7.79223 15.883 7.65 15.525 7.65V7.659Z" fill="#D6D6D7"/>
</svg>
