<svg width="55" height="44" viewBox="0 0 55 44" fill="none" xmlns="http://www.w3.org/2000/svg">
<path d="M0.75 21.7812V21.7695C0.75 19.0449 2.1797 17.3457 4.4766 17.3457C6.2578 17.3457 7.6465 18.4648 7.8985 20.0879L7.8926 20.0996H6.8321L6.8262 20.0879C6.545 19.0039 5.6426 18.3184 4.4766 18.3184C2.8536 18.3184 1.834 19.6543 1.834 21.7696V21.7813C1.834 23.8965 2.8535 25.2266 4.4824 25.2266C5.6601 25.2266 6.5566 24.6231 6.8203 23.6504L6.832 23.6387H7.8984V23.6504C7.6172 25.1973 6.2812 26.1992 4.4824 26.1992C2.1855 26.1992 0.75 24.5 0.75 21.7812ZM9.3604 23.7734V19.6836H10.3799V23.5274C10.3799 24.6641 10.7901 25.209 11.7979 25.209C12.9112 25.209 13.503 24.5293 13.503 23.4219V19.6836C14.9678 19.6133 15.2139 19.0625 15.2139 17.9141H16.1631C16.1631 19.4141 15.7471 19.9707 14.5225 20.2344V26H13.503V25.0566H13.4092C13.0987 25.7304 12.46 26.1113 11.5342 26.1113C10.0987 26.1113 9.3604 25.2675 9.3604 23.7734ZM11.4581 18.7402C11.8917 18.4414 12.0851 18.1836 12.0851 17.9609C12.0851 17.6562 11.7042 17.4863 11.2179 17.4863C10.9835 17.4863 10.837 17.5097 10.7316 17.5332V16.8594C10.8488 16.8067 11.1535 16.7539 11.4816 16.7539C12.2785 16.7539 12.9347 17.2227 12.9347 17.8144C12.9347 18.1953 12.7238 18.4941 12.255 18.8046H11.4581V18.7402ZM16.0782 24.2363V24.2246C16.0782 23.0996 16.9102 22.4492 18.3809 22.3613L20.1914 22.25V21.6758C20.1914 20.8965 19.7168 20.4746 18.7734 20.4746C18.0175 20.4746 17.5195 20.7558 17.3554 21.248L17.3495 21.2656H16.33L16.3359 21.2304C16.5 20.2402 17.4609 19.5722 18.8086 19.5722C20.3496 19.5722 21.2109 20.3632 21.2109 21.6757V25.9999H20.1914V25.0683H20.0976C19.6992 25.7421 19.0371 26.1113 18.1874 26.1113C16.9862 26.1113 16.0782 25.3847 16.0782 24.2363ZM18.3985 25.2265C19.4356 25.2265 20.1915 24.5468 20.1915 23.6445V23.0703L18.504 23.1758C17.5431 23.2344 17.1212 23.5742 17.1212 24.2012V24.2129C17.1212 24.8516 17.6661 25.2265 18.3985 25.2265ZM26.3389 17.5449H27.3936V21.2011H32.0342V17.5449H33.0889V26H32.0342V22.1504H27.3936V26H26.3389V17.5449ZM34.6211 24.2363V24.2246C34.6211 23.0996 35.4531 22.4492 36.9238 22.3613L38.7343 22.25V21.6758C38.7343 20.8965 38.2597 20.4746 37.3163 20.4746C36.5604 20.4746 36.0624 20.7558 35.8983 21.248L35.8924 21.2656H34.8729L34.8788 21.2304C35.0429 20.2402 36.0038 19.5722 37.3515 19.5722C38.8925 19.5722 39.7538 20.3632 39.7538 21.6757V25.9999H38.7343V25.0683H38.6405C38.2421 25.7421 37.58 26.1113 36.7303 26.1113C35.5291 26.1113 34.6211 25.3847 34.6211 24.2363ZM35.6113 16.8125H36.8183L37.8554 18.8047H36.9648L35.6113 16.8125ZM36.9414 25.2266C37.9785 25.2266 38.7344 24.5469 38.7344 23.6446V23.0704L37.0469 23.1759C36.086 23.2345 35.6641 23.5743 35.6641 24.2013V24.213C35.6641 24.8517 36.209 25.2266 36.9414 25.2266ZM41.4971 19.6836H42.5166V20.6328H42.6104C42.9268 19.9648 43.5186 19.5723 44.4502 19.5723C45.8682 19.5723 46.6592 20.4102 46.6592 21.9102V26H45.6397V22.1562C45.6397 21.0195 45.1709 20.4746 44.1631 20.4746C43.1553 20.4746 42.5166 21.1543 42.5166 22.2617V26H41.4971V19.6836ZM48.3262 26.5039L48.3379 26.498H49.3926L49.3985 26.5039C49.5098 26.9844 50.0723 27.3242 50.9805 27.3242C52.1114 27.3242 52.7852 26.791 52.7852 25.8594V24.5821H52.6914C52.293 25.2794 51.5781 25.6719 50.7109 25.6719C49.0761 25.6719 48.0625 24.4063 48.0625 22.6367V22.625C48.0625 20.8555 49.082 19.5723 50.7344 19.5723C51.625 19.5723 52.3164 20.0118 52.7032 20.7266H52.7735V19.6836H53.793V25.9121C53.793 27.3242 52.7032 28.2266 50.9805 28.2266C49.4571 28.2266 48.4844 27.5411 48.3262 26.5039ZM52.8086 22.6367V22.625C52.8086 21.3711 52.0996 20.4746 50.9336 20.4746C49.7617 20.4746 49.1055 21.3711 49.1055 22.625V22.6367C49.1055 23.8906 49.7617 24.7695 50.9336 24.7695C52.1055 24.7695 52.8086 23.8906 52.8086 22.6367Z" fill="black" fill-opacity="0.8"/>
</svg>
