<svg width="39" height="44" viewBox="0 0 39 44" fill="none" xmlns="http://www.w3.org/2000/svg">
<path d="M0.749978 21.7754V21.7637C0.749978 19.0977 2.26758 17.3457 4.58198 17.3457C6.45698 17.3457 7.77538 18.4004 8.10928 20.0059L8.12098 20.0645H7.05458L7.03698 20.0059C6.69128 18.9161 5.84168 18.3184 4.58188 18.3184C2.90608 18.3184 1.82798 19.6661 1.82798 21.7637V21.7754C1.82798 23.9024 2.88848 25.2266 4.58778 25.2266C6.09948 25.2266 7.11898 24.2598 7.11898 22.8301V22.625H4.74598V21.6992H8.17368V22.7304C8.17368 24.8163 6.74398 26.1992 4.58188 26.1992C2.24398 26.1992 0.749978 24.4765 0.749978 21.7754ZM9.62398 17.7617C9.62398 17.375 9.94038 17.0586 10.3271 17.0586C10.7138 17.0586 11.0302 17.375 11.0302 17.7617C11.0302 18.1484 10.7138 18.4648 10.3271 18.4648C9.94038 18.4648 9.62398 18.1484 9.62398 17.7617ZM9.81148 19.6836H10.831V26H9.81148V19.6836ZM12.2578 24.2363V24.2246C12.2578 23.0996 13.0898 22.4492 14.5605 22.3613L16.371 22.25V21.6758C16.371 20.8965 15.8964 20.4746 14.953 20.4746C14.1971 20.4746 13.6991 20.7558 13.535 21.248L13.5291 21.2656H12.5096L12.5155 21.2304C12.6796 20.2402 13.6405 19.5722 14.9882 19.5722C16.5292 19.5722 17.3905 20.3632 17.3905 21.6757V25.9999H16.371V25.0683H16.2772C15.8788 25.7421 15.2167 26.1113 14.367 26.1113C13.1658 26.1113 12.2578 25.3847 12.2578 24.2363ZM14.5781 25.2265C15.6152 25.2265 16.3711 24.5468 16.3711 23.6445V23.0703L14.6836 23.1758C13.7227 23.2344 13.3008 23.5742 13.3008 24.2012V24.2129C13.3008 24.8516 13.8457 25.2265 14.5781 25.2265ZM14.5078 18.7402C14.9414 18.4414 15.1348 18.1836 15.1348 17.9609C15.1348 17.6562 14.7539 17.4863 14.2676 17.4863C14.0332 17.4863 13.8867 17.5097 13.7813 17.5332V16.8594C13.8985 16.8067 14.2032 16.7539 14.5313 16.7539C15.3282 16.7539 15.9844 17.2227 15.9844 17.8144C15.9844 18.1953 15.7735 18.4941 15.3047 18.8046H14.5078V18.7402ZM18.9707 17.7617C18.9707 17.375 19.2871 17.0586 19.6738 17.0586C20.0605 17.0586 20.3769 17.375 20.3769 17.7617C20.3769 18.1484 20.0605 18.4648 19.6738 18.4648C19.2871 18.4648 18.9707 18.1484 18.9707 17.7617ZM19.1582 19.6836H20.1777V26H19.1582V19.6836ZM27.5605 18.4941H24.8359V17.5449H31.3398V18.4941H28.6152V26H27.5605V18.4941ZM31.8408 19.6836H32.8603V20.6211H32.9541C33.1943 19.959 33.7861 19.5723 34.6416 19.5723C34.835 19.5723 35.0518 19.5957 35.1514 19.6133V20.6035C34.9405 20.5683 34.7471 20.5449 34.5244 20.5449C33.5517 20.5449 32.8603 21.1601 32.8603 22.0859V26H31.8408V19.6836ZM36.3144 19.6836H37.3339V26H36.3144V19.6836ZM36.3261 18.8047L37.3632 16.8125H38.5702L37.2167 18.8047H36.3261Z" fill="black" fill-opacity="0.8"/>
</svg>
