<svg width="38" height="44" viewBox="0 0 38 44" fill="none" xmlns="http://www.w3.org/2000/svg">
<path d="M1.07812 17.5449H2.13283V21.2011H6.77343V17.5449H7.82812V26H6.77343V22.1504H2.13283V26H1.07812V17.5449ZM9.41892 22.8476V22.8359C9.41892 20.8086 10.5322 19.5722 12.331 19.5722C14.1298 19.5722 15.2431 20.8085 15.2431 22.8359V22.8476C15.2431 24.8691 14.1298 26.1113 12.331 26.1113C10.5322 26.1113 9.41892 24.8691 9.41892 22.8476ZM11.8212 17.205H12.8407L14.2997 18.9628H13.3505L12.331 17.7323L11.3115 18.9628H10.3623L11.8212 17.205ZM12.372 16.3261L12.1318 16.1269C11.915 15.9511 11.6982 15.7929 11.5166 15.7929C11.2529 15.7929 11.1299 16.039 11.1299 16.5488V16.6543H10.4268V16.5371C10.4268 15.5469 10.7959 15.0488 11.4229 15.0488C11.7686 15.0488 12.0616 15.1953 12.2901 15.3886L12.5303 15.5878C12.753 15.7753 12.9639 15.9218 13.1455 15.9218C13.4092 15.9218 13.5322 15.6757 13.5322 15.1659V15.0604H14.2353V15.1776C14.2353 16.1678 13.8662 16.6659 13.2392 16.6659C12.8935 16.6659 12.6005 16.5194 12.372 16.3261ZM14.2001 22.8476V22.8359C14.2001 21.3418 13.5263 20.4746 12.331 20.4746C11.1357 20.4746 10.4619 21.3418 10.4619 22.8359V22.8476C10.4619 24.3359 11.1357 25.2089 12.331 25.2089C13.5263 25.2089 14.2001 24.3359 14.2001 22.8476ZM22.287 18.4941H19.5624V17.5449H26.0663V18.4941H23.3417V26H22.287V18.4941ZM26.5673 19.6836H27.5868V20.6211H27.6806C27.9208 19.959 28.5126 19.5723 29.3681 19.5723C29.5615 19.5723 29.7783 19.5957 29.8779 19.6133V20.6035C29.667 20.5683 29.4736 20.5449 29.2509 20.5449C28.2782 20.5449 27.5868 21.1601 27.5868 22.0859V26H26.5673V19.6836ZM30.5253 22.8477V22.836C30.5253 20.8087 31.6386 19.5723 33.4374 19.5723C35.1718 19.5196 35.4589 18.9922 35.4765 17.9141H36.4257C36.4081 19.1739 36.0566 19.7598 35.1073 20.0411C35.8983 20.5743 36.3495 21.547 36.3495 22.836V22.8477C36.3495 24.8692 35.2362 26.1114 33.4374 26.1114C31.6386 26.1114 30.5253 24.8692 30.5253 22.8477ZM35.3065 22.8477V22.836C35.3065 21.3419 34.6327 20.4747 33.4374 20.4747C32.2421 20.4747 31.5683 21.3419 31.5683 22.836V22.8477C31.5683 24.336 32.2421 25.209 33.4374 25.209C34.6327 25.209 35.3065 24.336 35.3065 22.8477ZM32.7342 27.9219C32.7342 27.5352 33.0506 27.2188 33.4373 27.2188C33.824 27.2188 34.1404 27.5352 34.1404 27.9219C34.1404 28.3086 33.824 28.625 33.4373 28.625C33.0506 28.625 32.7342 28.3086 32.7342 27.9219Z" fill="black" fill-opacity="0.8"/>
</svg>
