<svg width="24" height="44" viewBox="0 0 24 44" fill="none" xmlns="http://www.w3.org/2000/svg">
<path d="M14.9574 23.7002C14.9574 24.6022 14.1894 25.2822 13.1524 25.2822C12.4204 25.2822 11.8754 24.9072 11.8754 24.2622C11.8754 23.6302 12.2974 23.2962 13.2584 23.2312L14.9574 23.1202V23.7002ZM13.5624 19.6282C12.2154 19.6282 11.2194 20.2962 11.0844 21.3092H12.1034C12.2444 20.8112 12.7714 20.5242 13.5274 20.5242C14.4714 20.5242 14.9574 20.9522 14.9574 21.7312V22.3052L13.1354 22.4172C11.6644 22.5052 10.8324 23.1552 10.8324 24.2862C10.8324 25.4402 11.7404 26.1672 12.9654 26.1672C13.8094 26.1672 14.5004 25.7982 14.9104 25.1242H15.0044V26.0552H15.9654V21.7312C15.9654 20.4192 15.1034 19.6282 13.5624 19.6282ZM20.3314 25.2032C19.1764 25.2032 18.4854 24.3182 18.4854 22.8422C18.4854 21.3712 19.1824 20.4802 20.3314 20.4802C21.4734 20.4802 22.1884 21.3942 22.1884 22.8422C22.1884 24.3012 21.4794 25.2032 20.3314 25.2032ZM22.1654 17.1762V20.6792H22.0774C21.7194 19.9882 20.9754 19.5722 20.0964 19.5722C18.4914 19.5722 17.4424 20.8612 17.4424 22.8422C17.4424 24.8282 18.4794 26.1112 20.0964 26.1112C20.9694 26.1112 21.7194 25.6952 22.1184 24.9922H22.2114V26.0002H23.1724V17.1762H22.1654ZM6.77142 22.0452H4.90842V18.4822H6.77142C7.99642 18.4822 8.67042 19.1212 8.67042 20.2812C8.67042 21.4002 7.97342 22.0452 6.77142 22.0452ZM7.04742 17.5452H3.85342V26.0002H4.90842V22.9822H7.03542C8.62342 22.9822 9.75442 21.8632 9.75442 20.2812C9.75442 18.6702 8.64642 17.5452 7.04742 17.5452ZM0.983424 25.9992H1.99142V19.6832H0.983424V25.9992ZM0.784424 17.7622C0.784424 17.3752 1.10042 17.0582 1.48742 17.0582C1.87442 17.0582 2.19042 17.3752 2.19042 17.7622C2.19042 18.1482 1.87442 18.4652 1.48742 18.4652C1.10042 18.4652 0.784424 18.1482 0.784424 17.7622Z" fill="black" fill-opacity="0.8"/>
</svg>
