<svg width="53" height="44" viewBox="0 0 53 44" fill="none" xmlns="http://www.w3.org/2000/svg">
<path d="M3.27538 18.4941H0.550781V17.5449H7.05468V18.4941H4.33008V26H3.27538V18.4941ZM7.88968 17.5449H8.99708L11.4815 24.6347H11.5753L14.0597 17.5449H15.1671L12.0499 26H11.0069L7.88968 17.5449ZM19.3809 23.75V23.7383C19.3809 22.7129 19.9375 21.9336 21.0801 21.3711L21.3906 21.2188C20.5996 20.3399 20.3242 19.8243 20.3242 19.2442V19.2325C20.3242 18.1544 21.2441 17.3458 22.4804 17.3458C23.7284 17.3458 24.6366 18.1427 24.6366 19.2442V19.2559C24.6366 20.0879 24.1503 20.7207 22.8085 21.4356L24.8827 23.6504C25.1815 23.0293 25.3222 22.2617 25.3222 21.4356V21.2891H26.3066V21.4414C26.3066 22.5957 26.0781 23.6211 25.6035 24.418L27.0801 25.9942V26.0001H25.7559L25.0059 25.1739C24.3497 25.795 23.4356 26.1583 22.2403 26.1583C20.5587 26.1583 19.3809 25.1621 19.3809 23.75ZM22.334 25.2676C23.1953 25.2676 23.8633 24.9629 24.3438 24.4531L21.9708 21.8574L21.6896 21.9922C20.881 22.3789 20.4357 22.9707 20.4357 23.668V23.6797C20.4357 24.6231 21.2032 25.2676 22.334 25.2676ZM22.2461 20.8379C23.3066 20.2871 23.6465 19.8594 23.6465 19.291V19.2793C23.6465 18.6289 23.1719 18.1836 22.4863 18.1836C21.8125 18.1836 21.332 18.6406 21.332 19.291V19.3027C21.332 19.7422 21.5722 20.1054 22.2461 20.8379ZM31.457 17.5449H32.4824L37.0703 24.125H37.1641V17.5449H38.2071V26H37.1817L32.5938 19.4434H32.5V26H31.457V17.5449ZM40.1728 17.1758H41.1923V20.6328H41.2861C41.6025 19.9648 42.1943 19.5723 43.1259 19.5723C44.5439 19.5723 45.3349 20.4102 45.3349 21.9102V26H44.3154V22.1562C44.3154 21.0195 43.8466 20.4746 42.8388 20.4746C41.831 20.4746 41.1923 21.1543 41.1923 22.2617V26H40.1728V17.1758ZM46.6796 24.2363V24.2246C46.6796 23.0996 47.5116 22.4492 48.9823 22.3613L50.7928 22.25V21.6758C50.7928 20.8965 50.3182 20.4746 49.3748 20.4746C48.6189 20.4746 48.1209 20.7558 47.9568 21.248L47.9509 21.2656H46.9314L46.9373 21.2304C47.1014 20.2402 48.0623 19.5722 49.41 19.5722C50.951 19.5722 51.8123 20.3632 51.8123 21.6757V25.9999H50.7928V25.0683H50.699C50.3006 25.7421 49.6385 26.1113 48.7888 26.1113C47.5876 26.1113 46.6796 25.3847 46.6796 24.2363ZM47.6698 16.8125H48.8768L49.9139 18.8047H49.0233L47.6698 16.8125ZM48.9999 25.2266C50.037 25.2266 50.7929 24.5469 50.7929 23.6446V23.0704L49.1054 23.1759C48.1445 23.2345 47.7226 23.5743 47.7226 24.2013V24.213C47.7226 24.8517 48.2675 25.2266 48.9999 25.2266Z" fill="black" fill-opacity="0.8"/>
</svg>
