<svg width="38" height="44" viewBox="0 0 38 44" fill="none" xmlns="http://www.w3.org/2000/svg">
<path d="M32.713 22.3203H36.193C36.17 21.2013 35.502 20.4633 34.5 20.4633C33.492 20.4633 32.789 21.2013 32.713 22.3203ZM37.172 24.3653C36.879 25.4433 35.895 26.1113 34.512 26.1113C32.76 26.1113 31.664 24.8453 31.664 22.8473C31.664 20.8613 32.777 19.5723 34.512 19.5723C36.217 19.5723 37.254 20.7853 37.254 22.7483V23.1343H32.713V23.1813C32.766 24.4293 33.463 25.2203 34.535 25.2203C35.35 25.2203 35.901 24.9223 36.164 24.3653H37.172ZM24.89 19.6833H25.851V20.6793H25.945C26.261 19.9823 26.877 19.5723 27.843 19.5723C29.261 19.5723 30.052 20.4103 30.052 21.9103V26.0003H29.045V22.1563C29.045 21.0193 28.564 20.4803 27.556 20.4803C26.548 20.4803 25.898 21.1543 25.898 22.2613V26.0003H24.89V19.6833ZM22.391 22.8413C22.391 21.3413 21.717 20.4803 20.522 20.4803C19.326 20.4803 18.652 21.3413 18.652 22.8413C18.652 24.3363 19.326 25.2033 20.522 25.2033C21.717 25.2033 22.391 24.3363 22.391 22.8413ZM17.609 22.8413C17.609 20.8083 18.723 19.5723 20.522 19.5723C22.32 19.5723 23.434 20.8083 23.434 22.8413C23.434 24.8693 22.32 26.1113 20.522 26.1113C18.723 26.1113 17.609 24.8693 17.609 22.8413ZM10.973 17.1753H11.981V20.6793H12.074C12.391 19.9823 13.053 19.5723 14.02 19.5723C15.356 19.5723 16.199 20.4273 16.199 21.9103V26.0003H15.192V22.1563C15.192 21.0373 14.688 20.4803 13.733 20.4803C12.602 20.4803 11.981 21.1953 11.981 22.2613V26.0003H10.973V17.1753ZM4.95796 22.0453H6.82096C8.02296 22.0453 8.71996 21.4003 8.71996 20.2813C8.71996 19.1213 8.04596 18.4823 6.82096 18.4823H4.95796V22.0453ZM7.09696 17.5453C8.69596 17.5453 9.80396 18.6703 9.80396 20.2813C9.80396 21.8633 8.67296 22.9823 7.08496 22.9823H4.95796V26.0003H3.90296V17.5453H7.09696ZM0.982959 25.9993H1.99096V19.6833H0.982959V25.9993ZM0.782959 17.7613C0.782959 17.3753 1.09996 17.0583 1.48596 17.0583C1.87296 17.0583 2.18996 17.3753 2.18996 17.7613C2.18996 18.1483 1.87296 18.4653 1.48596 18.4653C1.09996 18.4653 0.782959 18.1483 0.782959 17.7613Z" fill="black" fill-opacity="0.8"/>
</svg>
