<svg width="49" height="44" viewBox="0 0 49 44" fill="none" xmlns="http://www.w3.org/2000/svg">
<path d="M1.07812 17.5449H4.26563C5.85353 17.5449 6.97853 18.6406 6.97853 20.2461V20.2578C6.97853 21.8633 5.85353 22.9824 4.26563 22.9824H2.13283V26H1.07812V17.5449ZM2.13283 18.4824V22.0449H3.99612C5.20312 22.0449 5.90042 21.3828 5.90042 20.2695V20.2578C5.90042 19.1445 5.20312 18.4824 3.99612 18.4824H2.13283ZM8.51073 17.1758H9.53022V20.6328H9.62402C9.94042 19.9648 10.5322 19.5723 11.4638 19.5723C12.8818 19.5723 13.6728 20.4102 13.6728 21.9102V26H12.6533V22.1562C12.6533 21.0195 12.1845 20.4746 11.1767 20.4746C10.1689 20.4746 9.53022 21.1543 9.53022 22.2617V26H8.51073V17.1758ZM15.3339 23.7735V19.6837H16.3534V23.5275C16.3534 24.6642 16.7636 25.2091 17.7714 25.2091C18.8847 25.2091 19.4765 24.5294 19.4765 23.422V19.6837H20.496V26.0001H19.4765V25.0567H19.3827C19.0722 25.7305 18.4335 26.1114 17.5077 26.1114C16.0722 26.1114 15.3339 25.2676 15.3339 23.7735ZM17.2089 27.9219C17.2089 27.5352 17.5253 27.2188 17.912 27.2188C18.2987 27.2188 18.6151 27.5352 18.6151 27.9219C18.6151 28.3086 18.2987 28.625 17.912 28.625C17.5253 28.625 17.2089 28.3086 17.2089 27.9219ZM25.6591 17.5449H26.7138V21.6523H26.8076L30.5107 17.5449H31.8349L28.454 21.1953L32.1454 26H30.7802L27.7275 21.9277L26.7138 23.0468V25.9999H25.6591V17.5449ZM33.1503 17.7617C33.1503 17.375 33.4667 17.0586 33.8534 17.0586C34.2401 17.0586 34.5565 17.375 34.5565 17.7617C34.5565 18.1484 34.2401 18.4648 33.8534 18.4648C33.4667 18.4648 33.1503 18.1484 33.1503 17.7617ZM33.3378 19.6836H34.3573V26H33.3378V19.6836ZM35.8427 22.8652V22.8593C35.8427 20.9081 36.956 19.5722 38.6728 19.5722C40.3896 19.5722 41.4326 20.8495 41.4326 22.7363V23.1347H36.8857C36.915 24.4413 37.6357 25.2031 38.7607 25.2031C39.6162 25.2031 40.1435 24.7988 40.3134 24.4179L40.3368 24.3652H41.3563L41.3446 24.4121C41.1278 25.2676 40.2255 26.1113 38.7372 26.1113C36.9325 26.1113 35.8427 24.8457 35.8427 22.8652ZM38.0751 16.8125H39.3056L40.7236 18.8047H39.6455L38.7373 17.4746H38.6435L37.7353 18.8047H36.6572L38.0751 16.8125ZM36.9032 22.3203H40.3954C40.2899 21.0723 39.5985 20.4805 38.6669 20.4805C37.7294 20.4805 37.0146 21.1192 36.9032 22.3203ZM37.993 27.9219C37.993 27.5352 38.3094 27.2188 38.6961 27.2188C39.0828 27.2188 39.3992 27.5352 39.3992 27.9219C39.3992 28.3086 39.0828 28.625 38.6961 28.625C38.3094 28.625 37.993 28.3086 37.993 27.9219ZM42.8944 19.6836H43.9139V20.6328H44.0077C44.3241 19.9648 44.9159 19.5723 45.8475 19.5723C47.2655 19.5723 48.0565 20.4102 48.0565 21.9102V26H47.037V22.1562C47.037 21.0195 46.5682 20.4746 45.5604 20.4746C44.5526 20.4746 43.9139 21.1543 43.9139 22.2617V26H42.8944V19.6836Z" fill="black" fill-opacity="0.8"/>
</svg>
