<svg width="39" height="44" viewBox="0 0 39 44" fill="none" xmlns="http://www.w3.org/2000/svg">
<path d="M0.7501 21.7754V21.7637C0.7501 19.0977 2.2677 17.3457 4.5821 17.3457C6.4571 17.3457 7.7755 18.4004 8.1094 20.0059L8.1211 20.0645H7.0547L7.0371 20.0059C6.6914 18.9161 5.8418 18.3184 4.582 18.3184C2.9062 18.3184 1.8281 19.6661 1.8281 21.7637V21.7754C1.8281 23.9024 2.8886 25.2266 4.5879 25.2266C6.0996 25.2266 7.1191 24.2598 7.1191 22.8301V22.625H4.7461V21.6992H8.1738V22.7304C8.1738 24.8163 6.7441 26.1992 4.582 26.1992C2.2441 26.1992 0.7501 24.4765 0.7501 21.7754ZM9.6241 17.7617C9.6241 17.375 9.9405 17.0586 10.3272 17.0586C10.7139 17.0586 11.0303 17.375 11.0303 17.7617C11.0303 18.1484 10.7139 18.4648 10.3272 18.4648C9.9405 18.4648 9.6241 18.1484 9.6241 17.7617ZM9.8116 19.6836H10.8311V26H9.8116V19.6836ZM12.2579 24.2363V24.2246C12.2579 23.0996 13.0899 22.4492 14.5606 22.3613L16.3711 22.25V21.6758C16.3711 20.8965 15.8965 20.4746 14.9531 20.4746C14.1972 20.4746 13.6992 20.7558 13.5351 21.248L13.5292 21.2656H12.5097L12.5156 21.2304C12.6797 20.2402 13.6406 19.5722 14.9883 19.5722C16.5293 19.5722 17.3906 20.3632 17.3906 21.6757V25.9999H16.3711V25.0683H16.2773C15.8789 25.7421 15.2168 26.1113 14.3671 26.1113C13.1659 26.1113 12.2579 25.3847 12.2579 24.2363ZM14.5782 25.2265C15.6153 25.2265 16.3712 24.5468 16.3712 23.6445V23.0703L14.6837 23.1758C13.7228 23.2344 13.3009 23.5742 13.3009 24.2012V24.2129C13.3009 24.8516 13.8458 25.2265 14.5782 25.2265ZM14.5079 18.7402C14.9415 18.4414 15.1349 18.1836 15.1349 17.9609C15.1349 17.6562 14.754 17.4863 14.2677 17.4863C14.0333 17.4863 13.8868 17.5097 13.7814 17.5332V16.8594C13.8986 16.8067 14.2033 16.7539 14.5314 16.7539C15.3283 16.7539 15.9845 17.2227 15.9845 17.8144C15.9845 18.1953 15.7736 18.4941 15.3048 18.8046H14.5079V18.7402ZM18.9708 17.7617C18.9708 17.375 19.2872 17.0586 19.6739 17.0586C20.0606 17.0586 20.377 17.375 20.377 17.7617C20.377 18.1484 20.0606 18.4648 19.6739 18.4648C19.2872 18.4648 18.9708 18.1484 18.9708 17.7617ZM19.1583 19.6836H20.1778V26H19.1583V19.6836ZM27.5606 18.4941H24.836V17.5449H31.3399V18.4941H28.6153V26H27.5606V18.4941ZM31.8409 19.6836H32.8604V20.6211H32.9542C33.1944 19.959 33.7862 19.5723 34.6417 19.5723C34.8351 19.5723 35.0519 19.5957 35.1515 19.6133V20.6035C34.9406 20.5683 34.7472 20.5449 34.5245 20.5449C33.5518 20.5449 32.8604 21.1601 32.8604 22.0859V26H31.8409V19.6836ZM36.3145 19.6836H37.334V26H36.3145V19.6836ZM36.3262 18.8047L37.3633 16.8125H38.5703L37.2168 18.8047H36.3262Z" fill="black" fill-opacity="0.8"/>
</svg>
