<svg width="40" height="56" viewBox="0 0 40 56" fill="none" xmlns="http://www.w3.org/2000/svg">
<g clip-path="url(#clip0_310_154)">
<path d="M20 10.7C23.4216 10.7 26.7664 11.7146 29.6114 13.6156C32.4563 15.5165 34.6737 18.2184 35.9831 21.3796C37.2925 24.5407 37.6351 28.0192 36.9676 31.3751C36.3001 34.7309 34.6524 37.8135 32.233 40.2329C29.8135 42.6524 26.7309 44.3001 23.3751 44.9676C20.0192 45.6351 16.5407 45.2925 13.3796 43.9831C10.2184 42.6737 7.51653 40.4563 5.61558 37.6114C3.71464 34.7664 2.70001 31.4216 2.70001 28C2.7053 23.4134 4.52968 19.0161 7.77291 15.7729C11.0161 12.5297 15.4134 10.7053 20 10.7ZM20 8.5C16.1433 8.5 12.3731 9.64366 9.16639 11.7863C5.95963 13.929 3.46027 16.9745 1.98436 20.5377C0.508449 24.1008 0.122284 28.0216 0.874696 31.8043C1.62711 35.5869 3.4843 39.0615 6.21143 41.7886C8.93855 44.5157 12.4131 46.3729 16.1957 47.1253C19.9784 47.8777 23.8992 47.4916 27.4623 46.0157C31.0255 44.5397 34.071 42.0404 36.2137 38.8336C38.3564 35.6269 39.5 31.8567 39.5 28C39.5 22.8283 37.4455 17.8684 33.7886 14.2114C30.1316 10.5545 25.1717 8.5 20 8.5Z" fill="#6E6E73"/>
<path d="M19.2499 38.0599V36.5699C16.5299 36.3599 14.3999 34.8599 13.8999 32.5699C13.8552 32.3896 13.8284 32.2054 13.8199 32.0199C13.8114 31.8955 13.8292 31.7707 13.872 31.6536C13.9148 31.5365 13.9818 31.4297 14.0685 31.3401C14.1553 31.2506 14.2599 31.1802 14.3755 31.1337C14.4912 31.0871 14.6153 31.0654 14.7399 31.0699C14.9681 31.0776 15.1868 31.1631 15.3596 31.3123C15.5324 31.4615 15.649 31.6653 15.6899 31.8899C15.9699 33.4299 17.2599 34.5399 19.2499 34.7799V28.5299H19.0299C15.8299 27.7699 14.2099 26.3199 14.2099 23.9799C14.2099 21.4399 16.3399 19.6199 19.2099 19.3299V17.9399C19.2028 17.8373 19.2174 17.7344 19.2528 17.6379C19.2882 17.5413 19.3436 17.4534 19.4153 17.3797C19.4871 17.3061 19.5736 17.2485 19.6691 17.2106C19.7647 17.1727 19.8672 17.1554 19.9699 17.1599C20.0735 17.1556 20.1768 17.1729 20.2734 17.2106C20.3699 17.2483 20.4576 17.3056 20.5309 17.3789C20.6042 17.4522 20.6615 17.5399 20.6992 17.6364C20.7369 17.733 20.7542 17.8363 20.7499 17.9399V19.2899C23.2899 19.5399 25.2799 21.0099 25.7499 23.0599C25.7961 23.2432 25.823 23.4309 25.8299 23.6199C25.8343 23.7436 25.8128 23.8668 25.7669 23.9818C25.7209 24.0967 25.6515 24.2008 25.563 24.2874C25.4745 24.3739 25.369 24.4411 25.2531 24.4846C25.1372 24.5281 25.0135 24.5469 24.8899 24.5399C24.656 24.5446 24.4278 24.4671 24.2451 24.3209C24.0624 24.1748 23.9367 23.9691 23.8899 23.7399C23.6971 23.0236 23.2848 22.3857 22.7109 21.9158C22.1369 21.4458 21.4302 21.1675 20.6899 21.1199V26.9999L21.0999 27.0799C24.4199 27.7499 26.0999 29.2499 26.0999 31.7699C26.0999 34.5399 23.8199 36.3599 20.7099 36.5899V38.0599C20.7142 38.1634 20.6969 38.2668 20.6592 38.3633C20.6215 38.4599 20.5642 38.5475 20.4909 38.6208C20.4176 38.6941 20.3299 38.7514 20.2334 38.7891C20.1368 38.8268 20.0335 38.8441 19.9299 38.8399C19.834 38.8335 19.7402 38.8083 19.6541 38.7656C19.5679 38.7229 19.491 38.6636 19.4279 38.5912C19.3647 38.5187 19.3164 38.4344 19.2859 38.3433C19.2554 38.2521 19.2431 38.1558 19.2499 38.0599ZM19.2499 21.1199C17.3899 21.3599 16.1199 22.4499 16.1199 23.8599C16.1199 25.2699 17.1199 26.0299 19.1199 26.5699H19.2599L19.2499 21.1199ZM20.7899 34.7999C22.9999 34.5999 24.2499 33.4299 24.2499 31.8699C24.2499 30.3099 23.3899 29.5799 21.2499 29.0199L20.8199 28.9199L20.7899 34.7999Z" fill="#6E6E73"/>
</g>
<defs>
<clipPath id="clip0_310_154">
<rect width="40" height="56" fill="white"/>
</clipPath>
</defs>
</svg>
