<svg width="48" height="56" viewBox="0 0 48 56" fill="none" xmlns="http://www.w3.org/2000/svg">
<g clip-path="url(#clip0_310_173)">
<path d="M46.5552 27.6682C45.8952 26.4435 44.9963 25.3636 43.9119 24.4922C42.7374 23.5515 41.4073 22.8236 39.9819 22.3415C38.577 21.8609 37.1047 21.6065 35.62 21.5877C35.4793 21.5777 35.3386 21.5777 35.1878 21.5777C34.5848 21.5777 33.5019 21.6077 32.929 21.6782C31.8986 21.7836 30.8837 22.0062 29.9038 22.3416C28.4793 22.826 27.1496 23.5536 25.9738 24.4923C24.8893 25.3636 23.9905 26.4436 23.3305 27.6683C22.6688 28.9327 22.3376 30.3439 22.3674 31.7707C22.3973 33.1974 22.7873 34.5935 23.5013 35.8292C23.8408 36.398 24.2383 36.9301 24.6873 37.4172C25.1946 37.9816 25.7606 38.4904 26.3758 38.9348L26.5868 39.0855C27.9311 39.9954 29.4248 40.6622 30.9999 41.0553C32.4101 41.3778 33.8523 41.5396 35.2989 41.5377C35.7009 41.5377 36.113 41.5277 36.5251 41.4977H36.706C37.4227 41.9687 38.1678 42.395 38.9372 42.774C39.6303 43.119 40.3454 43.4178 41.0779 43.6685C41.587 43.8597 42.1225 43.9716 42.6657 44.0001C42.9479 44.0176 43.2258 43.9238 43.4396 43.7388C43.5352 43.6578 43.6131 43.558 43.6684 43.4456C43.7237 43.3332 43.7553 43.2106 43.7612 43.0855C43.7642 42.7989 43.6644 42.5207 43.4797 42.3016C43.2587 42.0403 42.9973 41.6985 42.6757 41.2764C42.3816 40.8937 42.1098 40.4943 41.8616 40.0804C41.8416 40.0504 41.9016 39.9196 41.9316 39.9096C43.5618 39.119 44.9577 37.9169 45.9816 36.4221C46.9724 35.0012 47.5024 33.31 47.4999 31.5778C47.5107 30.2168 47.1862 28.8741 46.5552 27.6682ZM44.324 35.2964C43.4925 36.5087 42.3552 37.4796 41.0274 38.1106C40.7652 38.2456 40.5336 38.433 40.3469 38.6612C40.1602 38.8894 40.0224 39.1535 39.942 39.4372C39.8564 39.7073 39.8275 39.9922 39.8569 40.2741C39.8863 40.5559 39.9734 40.8287 40.1129 41.0754C40.1229 41.0954 40.1329 41.1054 40.1429 41.1254C40.0329 41.0754 39.9218 41.0254 39.8012 40.9646C39.1045 40.6216 38.4298 40.2356 37.7812 39.8087C37.41 39.5815 36.9798 39.4696 36.545 39.4872H36.3741C36.0123 39.5172 35.6505 39.5272 35.2987 39.5272C34.0212 39.532 32.7474 39.3903 31.5022 39.1051C30.4601 38.8405 29.4567 38.4419 28.5172 37.9191C28.2459 37.7683 27.9745 37.5975 27.7232 37.4266C27.3581 37.1823 27.015 36.9066 26.6981 36.6025C26.1229 36.0785 25.6284 35.4722 25.2307 34.8034C24.6939 33.8663 24.4007 32.8095 24.3778 31.7298C24.355 30.6501 24.6032 29.5819 25.0999 28.623C25.6368 27.6296 26.3683 26.7545 27.2509 26.0501C28.2399 25.26 29.3587 24.6478 30.5574 24.241C31.5756 23.9017 32.6325 23.6923 33.7032 23.6178C34.0248 23.5978 34.8565 23.5878 35.1881 23.5878C35.55 23.5878 35.9118 23.5978 36.2736 23.6278C37.3136 23.7037 38.3401 23.9096 39.3289 24.2409C40.5297 24.6499 41.6515 25.2619 42.6456 26.0501C43.5195 26.7538 44.244 27.6251 44.7763 28.6129C45.2567 29.5266 45.5019 30.5455 45.4898 31.5778C45.4917 32.9075 45.0847 34.2057 44.324 35.2964ZM30.8999 15.671C29.2282 14.3286 27.3332 13.291 25.3018 12.6056C22.9671 11.8591 20.5291 11.486 18.078 11.5001C15.7508 11.483 13.4372 11.8567 11.2337 12.6056C9.20126 13.2888 7.30594 14.3266 5.63558 15.671C4.08309 16.9088 2.80046 18.4514 1.86668 20.2037C0.960919 21.9189 0.494735 23.832 0.509879 25.7717C0.50223 28.3996 1.25246 30.974 2.67068 33.1864C4.15383 35.3384 6.16897 37.0696 8.51988 38.2116C8.53958 38.2212 8.55477 38.2381 8.56223 38.2587C8.5697 38.2794 8.56885 38.3021 8.55988 38.3221C8.20789 38.9406 7.81502 39.5349 7.38388 40.1011C6.93168 40.7041 6.55978 41.1965 6.24818 41.5684C5.98036 41.8774 5.8371 42.2751 5.84628 42.684C5.8699 43.0424 6.03208 43.3777 6.29848 43.6187C6.60844 43.8819 7.00816 44.0152 7.41408 43.9906C8.18476 43.9531 8.94462 43.7936 9.66538 43.5182C10.7129 43.1572 11.7367 42.7309 12.7308 42.2418C13.8338 41.7154 14.9014 41.1178 15.9268 40.4528C15.9885 40.4187 16.0523 40.3887 16.1178 40.3628C16.7811 40.4128 17.4344 40.4428 18.0778 40.4428C19.9824 40.4485 21.881 40.2293 23.7341 39.7895C23.8648 39.7595 23.9854 39.7195 24.106 39.689C23.5297 39.1783 23.0047 38.6127 22.5383 38.0001C21.0699 38.2934 19.5757 38.4382 18.0783 38.4323C17.4954 38.4323 16.8924 38.4023 16.2692 38.3623L16.1992 38.3523H16.1192C15.6629 38.3639 15.2197 38.507 14.8428 38.7643C13.884 39.3829 12.887 39.9401 11.8578 40.4327C10.9377 40.8844 9.99122 41.2805 9.02358 41.6187C8.90298 41.6587 8.79238 41.6987 8.68188 41.7292C8.78238 41.5986 8.89288 41.4579 9.00348 41.3071C9.47716 40.6696 9.91343 40.0051 10.3101 39.3171C10.4496 39.0698 10.5375 38.7968 10.5684 38.5147C10.5993 38.2325 10.5726 37.9469 10.4899 37.6753C10.4072 37.4038 10.2702 37.1518 10.0873 36.9347C9.90433 36.7177 9.67922 36.54 9.42558 36.4125C7.38122 35.4236 5.62882 33.9206 4.34008 32.0507C3.14391 30.1755 2.51208 27.9959 2.51988 25.7717C2.50228 24.1587 2.88563 22.5666 3.63548 21.1385C4.44831 19.6274 5.55954 18.2972 6.90178 17.2285C8.39047 16.0346 10.078 15.1127 11.8869 14.5049C13.8802 13.8285 15.973 13.4921 18.0779 13.5099C20.3036 13.4935 22.518 13.8293 24.6388 14.5049C26.4486 15.1104 28.1365 16.0326 29.6238 17.2285C30.3873 17.8447 31.0814 18.5423 31.6938 19.309C32.4546 19.1768 33.2236 19.0962 33.9953 19.0678C33.1477 17.7804 32.1032 16.6342 30.8999 15.671Z" fill="#6E6E73"/>
</g>
<defs>
<clipPath id="clip0_310_173">
<rect width="48" height="56" fill="white"/>
</clipPath>
</defs>
</svg>
