<svg width="36" height="56" viewBox="0 0 36 56" fill="none" xmlns="http://www.w3.org/2000/svg">
<path d="M33.905 17.0628L19.905 9.48183C19.3202 9.16403 18.6651 8.99756 17.9995 8.99756C17.3339 8.99756 16.6788 9.16403 16.094 9.48183L2.094 17.0628C1.46043 17.4062 0.931398 17.9144 0.562808 18.5336C0.194219 19.1529 -0.000234357 19.8602 2.11969e-07 20.5808V35.4188C-0.000136779 36.1396 0.194466 36.847 0.563238 37.4662C0.932009 38.0855 1.46125 38.5936 2.095 38.9368L16.095 46.5178C16.6798 46.8358 17.3349 47.0024 18.0005 47.0024C18.6661 47.0024 19.3212 46.8358 19.906 46.5178L33.906 38.9368C34.5396 38.5934 35.0686 38.0853 35.4372 37.466C35.8058 36.8468 36.0002 36.1395 36 35.4188V20.5808C36.0001 19.8601 35.8055 19.1527 35.4368 18.5334C35.068 17.9142 34.5388 17.4061 33.905 17.0628ZM17.048 11.2408C17.3397 11.0827 17.6662 10.9998 17.998 10.9998C18.3298 10.9998 18.6563 11.0827 18.948 11.2408L32.748 18.7108L26.365 22.3558L11.943 14.0048L17.048 11.2408ZM18 27.1328L3.253 18.7108L9.882 15.1218L24.355 23.4998L18 27.1328ZM3.048 37.1778C2.73103 37.0063 2.46631 36.7522 2.28183 36.4426C2.09736 36.133 1.99998 35.7792 2 35.4188V20.5808C2.00607 20.4928 2.0181 20.4053 2.036 20.3188L17 28.8648V44.7328L3.048 37.1778ZM34 35.4188C34 35.7792 33.9026 36.133 33.7182 36.4426C33.5337 36.7522 33.269 37.0063 32.952 37.1778L19 44.7328V28.8648L33.964 20.3198C33.9819 20.4062 33.9939 20.4938 34 20.5818V35.4188Z" fill="#6E6E73"/>
</svg>
