<svg width="40" height="54" viewBox="0 0 40 54" fill="none" xmlns="http://www.w3.org/2000/svg">
<g clip-path="url(#clip0_310_340)">
<path d="M16 50V42.5H18.8815C18.9747 42.7196 19.1304 42.9069 19.3293 43.0386C19.5282 43.1702 19.7615 43.2405 20 43.2405C20.2385 43.2405 20.4718 43.1702 20.6707 43.0386C20.8696 42.9069 21.0253 42.7196 21.1185 42.5H24V49.98L16 50ZM40 20.5V40.5C40 40.8978 39.842 41.2794 39.5607 41.5607C39.2794 41.842 38.8978 42 38.5 42H1.5C1.10218 42 0.720644 41.842 0.43934 41.5607C0.158035 41.2794 0 40.8978 0 40.5L0 20.5C0 20.1022 0.158035 19.7206 0.43934 19.4393C0.720644 19.158 1.10218 19 1.5 19H38.5C38.8978 19 39.2794 19.158 39.5607 19.4393C39.842 19.7206 40 20.1022 40 20.5ZM38 21H2V40H38V21Z" fill="#1D1D1F"/>
</g>
<defs>
<clipPath id="clip0_310_340">
<rect width="40" height="54" fill="white"/>
</clipPath>
</defs>
</svg>
